<?xml version="1.0" encoding="utf-8"?>
<svg version="1.1" xmlns="http://www.w3.org/2000/svg" width="1024" height="1024">
  <path d="M0 0 C5.69043964 3.50267819 11.44599153 6.88802294 17.22673035 10.23948669 C18.1899823 10.79861755 19.15323425 11.35774841 20.14567566 11.93382263 C22.14023374 13.09112635 24.13502981 14.24801997 26.13005066 15.40452576 C31.96293768 18.79246848 37.78249137 22.20317545 43.60173035 25.61448669 C44.20786163 25.96971405 44.81399292 26.32494141 45.43849182 26.69093323 C56.73466353 33.31255503 68.00077627 39.98424229 79.2618866 46.66526794 C96.85487064 57.10196908 114.52959363 67.39897626 132.21110535 77.68479919 C143.78786899 84.42301016 155.33073265 91.21546645 166.84855652 98.05393982 C176.57730099 103.82675035 186.33053686 109.55712725 196.09587097 115.26780701 C201.34839163 118.33992508 206.59803363 121.41594691 211.8243866 124.53245544 C212.62537781 125.00892517 213.42636902 125.4853949 214.25163269 125.9763031 C215.68514618 126.83037137 217.11663027 127.68785979 218.545578 128.54954529 C221.69816795 130.58059653 221.69816795 130.58059653 225.28923035 131.23948669 C225.82548035 131.80667419 226.36173035 132.37386169 226.91423035 132.95823669 C230.03861331 135.95928875 233.48297451 137.71775894 237.28923035 139.73948669 C243.81747002 143.28708433 250.24793788 146.95062905 256.60173035 150.80198669 C262.54544367 154.40288337 268.50854945 157.96560222 274.5118866 161.46604919 C275.45784447 162.01805244 275.45784447 162.01805244 276.4229126 162.58120728 C278.94138489 164.05020113 281.46005657 165.51880204 283.98249817 166.98097229 C290.66163703 170.85278256 297.28575774 174.79799861 303.80485535 178.93479919 C304.90861511 179.63492126 306.01237488 180.33504333 307.14958191 181.05638123 C321.08223272 190.7442322 329.65181522 204.75809161 333.28923035 221.23948669 C334.56177692 228.9607272 334.43485428 236.68707783 334.42967224 244.4888916 C334.4322586 246.04840573 334.43527251 247.60791921 334.43867564 249.16743177 C334.44671712 253.44159759 334.44853362 257.71574658 334.44927311 261.98991907 C334.45112865 266.60429162 334.45867849 271.21865554 334.46540833 275.83302307 C334.47897189 285.91794442 334.48501328 296.00286178 334.48941898 306.08779073 C334.49218475 312.38899714 334.49642271 318.69020202 334.50092316 324.99140739 C334.51311324 342.44951945 334.52341307 359.90763028 334.52679825 377.3657465 C334.52701781 378.48241676 334.52723738 379.59908703 334.5274636 380.74959579 C334.52768188 381.86888438 334.52790016 382.98817298 334.52812505 384.14137942 C334.52856851 386.40935203 334.52901507 388.67732463 334.52946472 390.94529724 C334.52968615 392.07028157 334.52990758 393.1952659 334.53013572 394.35434067 C334.5340823 412.57608842 334.55153323 430.79779615 334.57482424 449.01952846 C334.59856276 467.74303121 334.61100124 486.4665139 334.61216617 505.19003195 C334.61308152 515.69631121 334.61879861 526.20253832 334.63698578 536.70880318 C334.65242052 545.65636211 334.65748735 554.60385276 334.64924768 563.55142248 C334.64535311 568.11226296 334.64621215 572.67296606 334.66030502 577.23378944 C334.67311577 581.41814125 334.67178412 585.60225348 334.65971431 589.78660529 C334.65776965 591.29133603 334.66077802 592.79608418 334.66955867 594.30079056 C334.77654209 613.89210335 331.10825871 632.4539798 317.28923035 647.23948669 C311.1963193 653.27876707 304.60687715 657.79246654 297.22673035 662.11448669 C295.17288274 663.34027511 293.11949841 664.56684009 291.0665741 665.79417419 C290.07383484 666.38424255 289.08109558 666.97431091 288.05827332 667.58226013 C284.43567625 669.75032475 280.85824642 671.98470165 277.28923035 674.23948669 C269.95197485 678.85516567 262.5457103 683.35465291 255.13566589 687.85227966 C248.602276 691.8213771 242.09433155 695.82907039 235.60173035 699.86448669 C228.96867818 703.98479427 222.30644066 708.04936556 215.60173035 712.05198669 C206.85730284 717.2726052 198.18136574 722.59981324 189.514328 727.94773865 C180.0584627 733.77776966 170.56859704 739.5502613 161.0665741 745.30467224 C155.63860877 748.59304489 150.21877095 751.89329414 144.8165741 755.22386169 C138.70674469 758.98997469 132.56927303 762.70911355 126.42750549 766.4228363 C116.77884831 772.25955666 107.17677533 778.15867546 97.66203308 784.21214294 C92.64154574 787.40135769 87.5760815 790.49824386 82.46379089 793.5375824 C76.19990933 797.27066895 69.99581067 801.0995955 63.78923035 804.92698669 C55.36748258 810.11991256 46.93372613 815.29165954 38.47673035 820.42698669 C31.22629471 824.83072066 23.99672504 829.26582254 16.78923035 833.73948669 C5.66360171 840.64046045 -5.49194903 847.49086796 -16.71076965 854.23948669 C-17.429422 854.67196716 -18.14807434 855.10444763 -18.88850403 855.55003357 C-37.73321723 866.81935958 -57.22152066 873.30465228 -79.34358215 868.36448669 C-90.82055835 865.21887422 -101.47008817 859.48293217 -111.27156067 852.85691833 C-115.5854492 849.99639271 -120.02914825 847.34992576 -124.46076965 844.67698669 C-131.96410782 840.13171264 -139.44810514 835.55889696 -146.89826965 830.92698669 C-155.03315113 825.87426528 -163.20799639 820.88923095 -171.39826965 815.92698669 C-185.94976402 807.10969947 -200.4388299 798.19268873 -214.91975403 789.25999451 C-228.56108792 780.84714756 -242.22610248 772.4757058 -255.93489075 764.17332458 C-262.51503388 760.18711697 -269.07763448 756.17395963 -275.62702942 752.13743591 C-283.19336572 747.48058385 -290.79290261 742.87794651 -298.38508606 738.26341248 C-301.31365311 736.48116164 -304.24019148 734.69566208 -307.16571045 732.90841675 C-309.65432932 731.3885929 -312.14423822 729.87089027 -314.63432312 728.35346985 C-315.83272935 727.62253996 -317.03060365 726.89073707 -318.22789001 726.15797424 C-324.84821726 722.10698759 -331.49810528 718.18341727 -338.3553009 714.5453949 C-341.42185553 712.84524972 -344.27510855 710.89542065 -347.1678009 708.91917419 C-350.89395034 706.4579695 -354.73330886 704.19224995 -358.56916809 701.90818787 C-363.63882303 698.88800777 -368.67973891 695.82354072 -373.71076965 692.73948669 C-379.6706765 689.08894957 -385.64409308 685.46357586 -391.64704895 681.88426208 C-395.67887636 679.47480988 -399.68705201 677.02912993 -403.68733215 674.56761169 C-405.25511414 673.60528625 -405.25511414 673.60528625 -406.85456848 672.6235199 C-408.94519482 671.33924809 -411.03362775 670.05139794 -413.1197052 668.75975037 C-414.07401428 668.17427429 -415.02832336 667.58879822 -416.0115509 666.98558044 C-417.297995 666.19171936 -417.297995 666.19171936 -418.61042786 665.38182068 C-420.60511318 664.08022477 -420.60511318 664.08022477 -422.71076965 664.23948669 C-423.71231405 663.24103348 -424.71189514 662.24061092 -425.71076965 661.23948669 C-427.60743705 659.93899399 -429.52678858 658.67131208 -431.46076965 657.42698669 C-446.96937319 647.13762473 -456.45138408 633.54333282 -460.71076965 615.23948669 C-461.86759771 607.97546343 -462.06917165 600.76728938 -462.26618958 593.42723083 C-462.28714829 592.67633938 -462.308107 591.92544792 -462.32970083 591.15180218 C-462.91345537 569.68692923 -462.85698336 548.21657352 -462.82834792 526.74555135 C-462.82397311 523.17203648 -462.82138213 519.59852412 -462.81925392 516.02500725 C-462.78533724 463.55022899 -462.4825723 411.07735924 -462.05248153 358.60445464 C-461.95071179 346.17716902 -461.85907431 333.74986429 -461.77861723 321.32242448 C-461.70690661 310.27625681 -461.62412341 299.23021578 -461.53110105 288.1842069 C-461.47994087 282.08091611 -461.43319542 275.97767711 -461.39835167 269.87426949 C-461.36581728 264.22155147 -461.31954555 258.56910831 -461.26289558 252.91658211 C-461.24463102 250.86401146 -461.23116924 248.81139092 -461.2231369 246.75875473 C-461.12790108 224.00034401 -458.21820668 204.55174767 -442.14826965 187.17698669 C-432.45957807 177.98094045 -419.73530878 171.90102545 -408.23054504 165.32029724 C-399.83157839 160.50376037 -391.53465976 155.53786399 -383.27326965 150.48948669 C-373.31258265 144.40646039 -363.28952872 138.45624869 -353.16438293 132.65110779 C-348.39754907 129.9086368 -343.64843347 127.13569867 -338.89826965 124.36448669 C-337.87982971 123.77039001 -336.86138977 123.17629333 -335.81208801 122.56419373 C-328.30658327 118.18126949 -320.81992922 113.76717152 -313.34114075 109.33885193 C-305.74843346 104.84552462 -298.13720602 100.38418864 -290.52326965 95.92698669 C-279.67637685 89.57658032 -268.85269504 83.18813702 -258.04328918 76.77415466 C-251.34218499 72.79794787 -244.63432568 68.83378539 -237.91560364 64.88743591 C-232.27949117 61.57629747 -226.65057901 58.25306192 -221.02326965 54.92698669 C-219.62479797 54.10049622 -219.62479797 54.10049622 -218.19807434 53.25730896 C-213.61038368 50.54564763 -209.02337341 47.83284284 -204.43733215 45.11839294 C-193.53449096 38.66734288 -182.61348533 32.2479527 -171.68043518 25.84828186 C-163.10864484 20.82999496 -154.55430439 15.78333429 -146.01441956 10.71095276 C-127.01184101 -0.57355602 -127.01184101 -0.57355602 -119.63459778 -4.68678284 C-118.15999012 -5.50979356 -116.687778 -6.33709768 -115.21662903 -7.16627502 C-70.39552552 -32.3801199 -42.26266225 -26.0726233 0 0 Z " fill="#3A59D7" transform="translate(574.7107696533203,89.76051330566406)"/>
  <path d="M0 0 C0.72104416 -0.00570007 1.44208832 -0.01140015 2.1849823 -0.01727295 C3.7018388 -0.02666074 5.21871511 -0.03323195 6.7355957 -0.03710938 C9.02657522 -0.04680562 11.31665244 -0.07788338 13.60742188 -0.109375 C24.01887959 -0.18922029 33.76608316 -0.10664144 41.71533203 7.45410156 C44.39845635 10.55141104 46.28732049 13.95364555 48.16796875 17.578125 C48.59489014 18.37412109 49.02181152 19.17011719 49.46166992 19.99023438 C50.73737815 22.38495567 51.98901677 24.79049191 53.23046875 27.203125 C53.5665918 27.85571289 53.90271484 28.50830078 54.24902344 29.18066406 C56.21586938 33.02671411 58.12995174 36.89778961 60.03466797 40.77490234 C62.54076465 45.86384427 65.07424813 50.93914811 67.60546875 56.015625 C68.36307495 57.54316406 68.36307495 57.54316406 69.13598633 59.1015625 C72.3127701 65.47607259 75.58118486 71.79381645 78.91015625 78.08984375 C84.1853971 88.06935776 89.32079539 98.11791521 94.44061279 108.17785645 C97.08350803 113.37020435 99.73093336 118.56024012 102.37890625 123.75 C102.89446075 124.76044373 103.41001526 125.77088745 103.94119263 126.81195068 C108.32580974 135.40017145 112.7504281 143.96662596 117.20166016 152.52050781 C121.95055401 161.64888901 126.6546699 170.79992083 131.35546875 179.953125 C136.73815867 190.43278224 142.14336531 200.89942041 147.609375 211.3359375 C152.63708216 220.95056653 157.58548106 230.60587396 162.53866577 240.2590332 C166.99045751 248.93406979 171.46884538 257.5917472 176.04296875 266.203125 C186.28484544 285.61327068 186.28484544 285.61327068 185.23046875 292.203125 C183.40948829 296.3242913 180.89655552 298.63686426 177.23046875 301.203125 C173.95749149 302.29411742 171.48061597 302.36331108 168.03417969 302.41186523 C166.11638702 302.44080116 166.11638702 302.44080116 164.15985107 302.47032166 C162.76152562 302.48512989 161.36318888 302.49890315 159.96484375 302.51171875 C159.25921547 302.51829058 158.55358719 302.5248624 157.82657623 302.53163338 C154.09029647 302.56420022 150.35404487 302.58865574 146.61767578 302.6081543 C143.53294165 302.62595225 140.44912434 302.66074888 137.36474609 302.71069336 C133.63291095 302.77104302 129.90192418 302.80164936 126.16962433 302.81132698 C124.75185517 302.8198588 123.3341073 302.83862124 121.91661835 302.8680706 C109.46013842 303.1128977 109.46013842 303.1128977 105.02050781 299.53369141 C102.41288549 296.73161295 100.49802546 293.72494897 98.79296875 290.29296875 C98.21651611 289.15424316 97.64006348 288.01551758 97.04614258 286.84228516 C96.44079861 285.60845699 95.83557759 284.3745685 95.23046875 283.140625 C94.57678389 281.83819046 93.92139296 280.53661097 93.2644043 279.23583984 C91.9071521 276.54539474 90.55720043 273.85147553 89.21240234 271.15478516 C86.22410361 265.17727889 83.12754813 259.25639917 80.04296875 253.328125 C75.73955721 245.0204141 71.45702956 236.70217693 67.19140625 228.375 C66.75521469 227.52360443 66.31902313 226.67220886 65.86961365 225.79501343 C63.73079771 221.61957804 61.593417 217.44341674 59.45825195 213.26611328 C54.5544141 203.68081754 49.57916145 194.13596297 44.55395508 184.61376953 C41.41363446 178.66032673 38.32073325 172.6826909 35.23046875 166.703125 C30.82953207 158.20139672 26.40852915 149.71122749 21.93994141 141.24487305 C16.66670633 131.25020226 11.45165887 121.22505208 6.23046875 111.203125 C5.57046875 111.203125 4.91046875 111.203125 4.23046875 111.203125 C-9.89539937 140.0037064 -9.89539937 140.0037064 -23.80908203 168.90698242 C-27.65407664 176.98237263 -31.55238647 185.03145975 -35.45703125 193.078125 C-35.96351196 194.12202393 -35.96351196 194.12202393 -36.48022461 195.18701172 C-39.25953443 200.91499659 -42.04044079 206.64220597 -44.82141113 212.36938477 C-47.2423503 217.35527622 -49.66267256 222.34146643 -52.08203125 227.328125 C-52.41996704 228.02462158 -52.75790283 228.72111816 -53.1060791 229.4387207 C-57.59345244 238.68951389 -62.05070141 247.95390935 -66.47338867 257.23583984 C-71.10319751 266.93532802 -75.81377905 276.59544833 -80.51696777 286.25949097 C-85.06098039 295.59828318 -89.58293878 304.94531911 -93.99243164 314.34863281 C-96.46697522 319.61457089 -99.07198315 324.79913079 -101.7734375 329.953125 C-102.97193745 332.25021979 -102.97193745 332.25021979 -102.76953125 335.203125 C-102.08961561 335.20551335 -101.40969997 335.20790171 -100.70918083 335.21036243 C-84.15843348 335.26952169 -67.60785025 335.34507761 -51.05726433 335.43883991 C-43.0534891 335.48378825 -35.04975827 335.52320511 -27.04589844 335.54956055 C-20.06899666 335.57254845 -13.09223549 335.60595526 -6.11544526 335.65182656 C-2.42193212 335.67574822 1.27144185 335.69448387 4.96503067 335.70073891 C9.0903327 335.70792039 13.21515087 335.73836433 17.34033203 335.77075195 C18.5624086 335.76931686 19.78448517 335.76788177 21.04359436 335.7664032 C31.44071189 335.88203973 31.44071189 335.88203973 36.23046875 339.203125 C38.77220347 341.89437353 40.56523179 344.74122928 42.35546875 347.953125 C43.85737684 351.24626957 43.85737684 351.24626957 46.23046875 352.203125 C48.16717815 352.30548399 50.10744717 352.34263153 52.04684448 352.35029602 C53.28596085 352.35745132 54.52507721 352.36460663 55.80174255 352.37197876 C57.18276953 352.37481926 58.56379677 352.37753096 59.94482422 352.38012695 C61.3936123 352.38639103 62.84239877 352.39303778 64.29118347 352.40003967 C69.05999631 352.42110482 73.82880952 352.43145042 78.59765625 352.44140625 C80.241131 352.44545414 81.88460558 352.44957107 83.52807999 352.45375633 C91.25628407 352.47282039 98.98447859 352.48704385 106.71270168 352.4953683 C115.61733407 352.50511891 124.52171644 352.53137608 133.42626083 352.57186919 C140.316455 352.60211944 147.20657792 352.61684594 154.09683716 352.62014931 C158.2075529 352.62249143 162.31800194 352.63134042 166.42864609 352.65661049 C170.30454229 352.68004992 174.1799993 352.68406151 178.05594826 352.67384911 C179.46997483 352.67335731 180.88402418 352.6795712 182.29798317 352.69340515 C194.87115675 352.80941927 206.46026905 350.64187714 216.23046875 342.203125 C221.47249697 336.76694759 224.67713972 330.21631805 228.16796875 323.578125 C228.82751149 322.33590916 229.48726468 321.09380504 230.1472168 319.85180664 C235.35770089 310.0095188 240.35759359 300.06614329 245.30371094 290.08886719 C248.97072539 282.69431272 252.73695674 275.36575805 256.61450195 268.07983398 C260.23406987 261.25574195 263.67327346 254.34668015 267.1081543 247.42822266 C270.9994908 239.61231994 275.04135132 231.88241603 279.13671875 224.171875 C283.52693314 216.62986483 283.52693314 216.62986483 284.23046875 208.203125 C283.30941967 205.39019134 282.29226889 202.63885653 281.203125 199.88671875 C277.12814005 188.64368799 278.27912872 176.22403249 282.68359375 165.32421875 C284.9765739 160.69772598 287.72765164 156.97595092 291.23046875 153.203125 C291.84921875 152.50574219 292.46796875 151.80835938 293.10546875 151.08984375 C301.11671654 142.51328613 310.82967931 136.99528326 322.5859375 135.88671875 C333.13166434 135.53021108 342.18198143 137.68736339 350.453125 144.453125 C358.29494038 152.17429707 362.39368867 162.29154773 362.66796875 173.203125 C362.16484796 188.56507965 356.15278281 200.56682898 345.23046875 211.203125 C338.30690506 217.54467283 331.2171531 221.95480172 321.6875 222.546875 C320.86362793 222.61745117 320.03975586 222.68802734 319.19091797 222.76074219 C316.66796875 222.953125 316.66796875 222.953125 314.27001953 222.93457031 C311.33959742 223.17143345 309.73741094 223.62559604 307.23046875 225.203125 C303.53253669 230.18653059 300.93279042 235.63589669 298.23046875 241.203125 C297.45865922 242.72752567 296.68334127 244.25015504 295.90454102 245.77099609 C293.907549 249.68772565 291.94857576 253.62200183 290.00292969 257.56445312 C287.93324193 261.75728305 285.84952462 265.94312602 283.765625 270.12890625 C283.36393097 270.93623199 282.96223694 271.74355774 282.54837036 272.5753479 C279.32350058 279.04463824 275.99899859 285.45505311 272.59399414 291.83129883 C269.04594962 298.49253654 265.6945645 305.24737692 262.33837891 312.00683594 C259.33857041 318.031902 256.2566848 324.00601926 253.10546875 329.953125 C252.49952881 331.10868896 252.49952881 331.10868896 251.88134766 332.28759766 C249.83283913 336.19418998 247.75001664 340.07491039 245.60546875 343.9296875 C238.80451096 356.37098522 238.80451096 356.37098522 239.23046875 370.203125 C240.62953141 373.67242705 242.26995867 377.01028314 243.92578125 380.36328125 C244.40973358 381.35869934 244.89368591 382.35411743 245.39230347 383.37969971 C251.61024729 396.12161535 257.98593275 408.78653583 264.35546875 421.453125 C266.19858379 425.11882101 268.04110811 428.78480813 269.88058472 432.45233154 C271.01275617 434.70917676 272.14673265 436.96511762 273.28274536 439.22003174 C273.78772552 440.22668884 274.29270569 441.23334595 274.81298828 442.27050781 C275.47936813 443.59541229 275.47936813 443.59541229 276.15921021 444.94708252 C278.44394207 449.75866807 278.72887127 453.96066885 278.23046875 459.203125 C276.80979802 462.83372799 275.69135191 463.92258742 272.35546875 465.953125 C267.80333154 467.77397989 263.71657125 468.32817115 258.83276367 468.36425781 C257.77784225 468.37386536 256.72292084 468.3834729 255.6360321 468.39337158 C253.94061028 468.3997464 253.94061028 468.3997464 252.2109375 468.40625 C251.0383992 468.41195007 249.8658609 468.41765015 248.65779114 468.42352295 C246.17901508 468.43295951 243.70022656 468.43950158 241.22143555 468.44335938 C237.44232152 468.45306247 233.66375205 468.48409855 229.88476562 468.515625 C227.47265947 468.52215582 225.06054944 468.52740598 222.6484375 468.53125 C221.52422897 468.5435968 220.40002045 468.5559436 219.241745 468.56866455 C210.60916417 468.5443243 203.68044428 467.50338431 197.23046875 461.203125 C195.55566406 458.70239258 195.55566406 458.70239258 194.05859375 455.84765625 C193.48496094 454.76613281 192.91132812 453.68460938 192.3203125 452.5703125 C191.70678386 451.38554475 191.09350976 450.20064515 190.48046875 449.015625 C189.83160436 447.78209132 189.18184508 446.549028 188.53125 445.31640625 C184.88067516 438.37892171 181.30014082 431.4049673 177.71484375 424.43359375 C177.3397467 423.70445267 176.96464966 422.97531158 176.57818604 422.22407532 C174.75491939 418.67748045 172.93693788 415.12837052 171.12988281 411.57348633 C168.03080929 405.49083876 164.88128583 399.43999035 161.54296875 393.484375 C161.02347656 392.55689453 160.50398438 391.62941406 159.96875 390.67382812 C157.85707649 387.67240454 156.39707691 386.13282128 153.23046875 384.203125 C149.58370955 383.62325503 145.97518014 383.6979961 142.28979492 383.74902344 C141.18691132 383.74843933 140.08402771 383.74785522 138.94772339 383.74725342 C135.3059735 383.75003788 131.66504424 383.78114864 128.0234375 383.8125 C125.49710029 383.81996106 122.9707573 383.82565463 120.44441223 383.82965088 C114.47682407 383.84335769 108.50958762 383.87487582 102.54214031 383.91504884 C95.74654835 383.95980118 88.95094216 383.98176222 82.15523946 384.00183058 C68.18015324 384.04360983 54.2053271 384.11394012 40.23046875 384.203125 C38.33625963 387.90025222 36.86021746 391.22100638 35.91796875 395.265625 C34.4645676 400.37175391 32.662661 402.34066751 28.23046875 405.203125 C25.42811835 406.1372418 23.70606813 406.3356234 20.80667114 406.35461426 C19.89995163 406.36295792 18.99323212 406.37130157 18.05903625 406.37989807 C17.06518417 406.38408249 16.07133209 406.38826691 15.04736328 406.39257812 C13.99754776 406.40087143 12.94773224 406.40916473 11.86610413 406.41770935 C9.57447971 406.43514697 7.28283708 406.45030352 4.99118423 406.46348572 C1.31560154 406.48464954 -2.35989802 406.51168759 -6.03543091 406.54016113 C-12.57765262 406.58985494 -19.11990019 406.63432443 -25.66217041 406.67706299 C-43.45084204 406.7934785 -61.23931761 406.91854046 -79.02746201 407.09996033 C-84.90619952 407.15950399 -90.78473118 407.21151907 -96.66369629 407.2421875 C-101.97536544 407.27015456 -107.2863091 407.3208928 -112.59759903 407.38990784 C-114.52416763 407.4109291 -116.45084912 407.42357082 -118.37752914 407.42710876 C-121.00528127 407.43319233 -123.63094883 407.46967234 -126.25830078 407.51367188 C-127.01024342 407.50815308 -127.76218605 407.50263428 -128.53691483 407.49694824 C-134.31803735 407.64415558 -138.24783765 409.63983886 -142.76953125 413.203125 C-144.67300042 415.32553579 -144.67300042 415.32553579 -145.84375 417.69921875 C-146.32247559 418.57304199 -146.80120117 419.44686523 -147.29443359 420.34716797 C-147.78121582 421.28963379 -148.26799805 422.23209961 -148.76953125 423.203125 C-149.29627441 424.19070801 -149.82301758 425.17829102 -150.36572266 426.19580078 C-152.13183639 429.5388938 -153.86010558 432.89956942 -155.58203125 436.265625 C-156.23054573 437.52702514 -156.87939881 438.78825125 -157.52856445 440.04931641 C-158.90135544 442.71735226 -160.27225446 445.38634733 -161.64160156 448.05615234 C-164.87706599 454.36357409 -168.12373915 460.66522682 -171.36981201 466.9671936 C-172.45856286 469.08109876 -173.54691158 471.19521066 -174.63525391 473.30932617 C-179.18602437 482.14652496 -183.74998273 490.9766144 -188.37475586 499.77539062 C-190.75979837 504.31864071 -193.1155393 508.87347922 -195.41474915 513.46090698 C-196.641975 515.9068209 -197.87931486 518.34756123 -199.11709595 520.78814697 C-199.98779669 522.51517958 -200.84415633 524.24941948 -201.69995117 525.98388672 C-206.17737916 534.79544377 -210.74352113 543.28126804 -220.50778198 546.62548828 C-224.59574468 547.66952857 -228.67303938 547.80149185 -232.875 547.93359375 C-233.83489334 547.973741 -234.79478668 548.01388824 -235.7837677 548.05525208 C-237.8132031 548.13769484 -239.84290454 548.21380564 -241.87280273 548.28393555 C-244.90351912 548.38877391 -247.93302421 548.51181956 -250.96289062 548.63867188 C-256.89737224 548.87748462 -262.83215304 549.05471816 -268.76953125 549.203125 C-269.76309631 549.23005432 -270.75666138 549.25698364 -271.78033447 549.284729 C-274.6686817 549.35556846 -277.55637399 549.40271518 -280.4453125 549.44140625 C-281.3130278 549.46349655 -282.1807431 549.48558685 -283.07475281 549.50834656 C-287.83696603 549.54005371 -290.86859555 549.2525801 -294.76953125 546.203125 C-295.76953125 545.203125 -295.76953125 545.203125 -296.13712311 541.81093597 C-296.04460845 536.04063419 -293.47136738 531.52445311 -290.88806152 526.47814941 C-290.1002356 524.89224447 -290.1002356 524.89224447 -289.29649401 523.27430105 C-287.84122791 520.35289627 -286.37188104 517.43910458 -284.89621496 514.52796745 C-283.30570043 511.38156963 -281.73376103 508.22590971 -280.15951538 505.0713501 C-277.42964281 499.60741341 -274.68812645 494.14945173 -271.93858337 488.69538879 C-267.95449916 480.79240524 -263.98824404 472.88058074 -260.02620131 464.96652859 C-253.58563475 452.10290284 -247.13081965 439.24648246 -240.66699219 426.39453125 C-234.40893111 413.95162581 -228.15746351 401.5054455 -221.91503906 389.0546875 C-221.33935976 387.90648158 -221.33935976 387.90648158 -220.75205058 386.73507959 C-218.82553811 382.89250043 -216.89915947 379.04985419 -214.97284985 375.20717335 C-211.21524757 367.71144312 -207.45676857 360.21615258 -203.69787598 352.72106934 C-203.33388822 351.99529164 -202.96990047 351.26951395 -202.59488279 350.521743 C-193.41148007 332.2111436 -184.21491653 313.90715693 -175.01486206 295.60491943 C-169.25397539 284.14384489 -163.49843483 272.68022347 -157.76953125 261.203125 C-157.33056393 260.32408445 -156.8915966 259.44504391 -156.43932724 258.53936577 C-155.34733877 256.35220629 -154.25584281 254.16480196 -153.16455078 251.97729492 C-149.17880965 243.98959435 -145.19112486 236.00286619 -141.2022419 228.01673412 C-138.81003198 223.22710036 -136.41857657 218.43709292 -134.02880859 213.64624023 C-131.68716189 208.9519433 -129.34346223 204.25867628 -126.99843979 199.56606483 C-126.11841881 197.80420608 -125.23908919 196.04200178 -124.36053848 194.27940941 C-119.42309575 184.37486642 -114.38683895 174.53423842 -109.20704746 164.75415707 C-106.13255133 158.9339137 -103.21498038 153.05828777 -100.4296875 147.09375 C-95.04085232 135.70204291 -89.45248711 124.41622179 -83.80786133 113.14941406 C-82.20158394 109.94224865 -80.59963103 106.73294872 -78.99804688 103.5234375 C-74.35790739 94.24075486 -69.68827507 84.98171583 -64.8125 75.8203125 C-60.85562696 68.38097194 -57.098201 60.85357421 -53.38671875 53.2890625 C-52.83635452 52.1710022 -52.2859903 51.05294189 -51.71894836 49.90100098 C-49.44894401 45.28944443 -47.1791429 40.677989 -44.93212891 36.05517578 C-43.26342899 32.62653012 -41.57668393 29.2072663 -39.88671875 25.7890625 C-39.39066132 24.75768158 -38.89460388 23.72630066 -38.3835144 22.66366577 C-34.65637033 15.1806676 -30.21244389 7.79924925 -22.828125 3.484375 C-21.96316406 3.2265625 -21.09820312 2.96875 -20.20703125 2.703125 C-19.33949219 2.4246875 -18.47195313 2.14625 -17.578125 1.859375 C-11.74200836 0.49572049 -5.97775715 0.03756936 0 0 Z " fill="#FDFDFE" transform="translate(497.76953125,177.796875)"/>
  <path d="M0 0 C0.63164063 0.433125 1.26328125 0.86625 1.9140625 1.3125 C2.60757813 1.786875 3.30109375 2.26125 4.015625 2.75 C11.77186409 8.7923136 16.38603967 17.68595619 17.9140625 27.3125 C18.88266126 37.65009043 16.85379852 47.85328059 10.6328125 56.28515625 C3.4979213 64.70108474 -6.03288324 70.602533 -17.1875 71.5859375 C-29.70297278 71.94669392 -36.49624559 68.24610021 -45.56640625 59.88671875 C-49.46238618 57.45248633 -53.06709997 57.85004432 -57.40449524 58.84361267 C-60.13051635 59.61770474 -62.82822814 60.45704902 -65.52734375 61.3203125 C-66.5479892 61.63775925 -67.56863464 61.95520599 -68.62020874 62.28227234 C-71.9658802 63.3248943 -75.30710197 64.38107344 -78.6484375 65.4375 C-82.14690628 66.53269136 -85.64634672 67.62473961 -89.14582825 68.71669006 C-91.53974381 69.46398676 -93.93328522 70.21248305 -96.32646179 70.96214294 C-104.39570155 73.48688026 -112.47991857 75.95659777 -120.578125 78.38671875 C-122.16816597 78.86492065 -122.16816597 78.86492065 -123.79032898 79.3527832 C-127.86414701 80.57760287 -131.93800038 81.80214 -136.01541138 83.01495361 C-138.7998801 83.84379835 -141.58176262 84.68084914 -144.36328125 85.51953125 C-145.17864349 85.7595134 -145.99400574 85.99949554 -146.83407593 86.24674988 C-152.8896418 88.0843179 -157.57549887 89.82791442 -160.8984375 95.5 C-167.86393558 106.38028435 -177.72537286 113.82925372 -190.2734375 117.25 C-202.1293645 119.72896656 -212.64020942 117.88949798 -223.09375 111.62109375 C-233.18360775 104.99344209 -240.36755537 94.65832391 -243.3984375 82.9375 C-245.84744139 69.56217104 -243.23903997 56.83590529 -236.0859375 45.3125 C-229.10017068 35.62153873 -219.03526076 28.25733121 -207.0859375 26.3125 C-195.42133483 25.29004717 -184.6748639 27.36606652 -175.0859375 34.3125 C-170.29878909 38.58441037 -165.49127283 42.87798975 -162.26171875 48.47265625 C-158.89968037 52.86081047 -155.12130062 53.82560534 -149.78466797 54.68164062 C-133.92620823 56.25501473 -119.62396163 52.2723156 -104.70257568 47.43226624 C-99.01946518 45.58994957 -93.30400648 43.87452771 -87.57421875 42.18359375 C-84.89503349 41.38622334 -82.21641662 40.58697911 -79.53808594 39.78674316 C-77.78750072 39.26498393 -76.03604006 38.74615239 -74.28369141 38.23034668 C-71.82446059 37.50337096 -69.37086788 36.75973846 -66.91796875 36.01171875 C-65.81694572 35.69176186 -65.81694572 35.69176186 -64.69367981 35.36534119 C-59.21581415 33.66801825 -56.3433242 31.64186786 -53.62890625 26.61328125 C-53.18160156 25.62714844 -52.73429688 24.64101563 -52.2734375 23.625 C-47.64874888 14.12126489 -41.94328454 7.1468617 -33.0859375 1.3125 C-32.43367187 0.87679687 -31.78140625 0.44109375 -31.109375 -0.0078125 C-22.51256835 -4.75431192 -8.5907628 -4.77633144 0 0 Z " fill="#FDFDFE" transform="translate(824.0859375,676.6875)"/>
  <path d="M0 0 C2.16789006 1.22705013 4.33452451 2.45619961 6.5 3.6875 C7.1391333 4.05037109 7.7782666 4.41324219 8.43676758 4.78710938 C11.91544224 6.77265628 15.32954241 8.81386251 18.6875 11 C21.78312361 13.25843455 21.78312361 13.25843455 25 13 C25 13.99 25 14.98 25 16 C25.804375 16.268125 26.60875 16.53625 27.4375 16.8125 C28.283125 17.204375 29.12875 17.59625 30 18 C30.495 19.485 30.495 19.485 31 21 C26.82783427 19.48968284 23.14879477 17.40433497 19.38671875 15.0859375 C18.46509697 14.5241832 18.46509697 14.5241832 17.52485657 13.95108032 C15.57687121 12.76261099 13.63216072 11.56889988 11.6875 10.375 C10.36154145 9.56475496 9.03537171 8.75485543 7.70898438 7.9453125 C4.4701985 5.96753176 1.23433774 3.98504586 -2 2 C-1.34 1.34 -0.68 0.68 0 0 Z " fill="#4D50CC" transform="translate(334,860)"/>
  <path d="M0 0 C0.66 0.66 1.32 1.32 2 2 C-1.84319295 7.0865789 -6.23414518 11.03515754 -11.1875 15 C-12.1148999 15.7576062 -12.1148999 15.7576062 -13.06103516 16.53051758 C-14.64430586 17.77193106 -16.31766239 18.89655371 -18 20 C-18.99 19.67 -19.98 19.34 -21 19 C-18.76083469 17.18067818 -16.5306822 15.37226961 -14.16796875 13.71484375 C-8.62854003 9.79244748 -4.34324148 5.19802837 0 0 Z " fill="#5354D0" transform="translate(852,380)"/>
  <path d="M0 0 C0.33 0 0.66 0 1 0 C0.56771676 6.91653188 -2.08638517 12.08638517 -7 17 C-6.37954537 12.76677156 -4.89476441 9.47709705 -2.9375 5.6875 C-2.38964844 4.61886719 -1.84179688 3.55023438 -1.27734375 2.44921875 C-0.64505859 1.23685547 -0.64505859 1.23685547 0 0 Z " fill="#2C63DD" transform="translate(447,404)"/>
  <path d="M0 0 C3.94876098 0.56410871 6.75634176 1.65735794 10 4 C10.33 4.99 10.66 5.98 11 7 C6.89188572 5.55007731 3.53144334 3.54592427 0 1 C0 0.67 0 0.34 0 0 Z " fill="#4C58D0" transform="translate(295,838)"/>
  <path d="M0 0 C4.7517398 0.43197635 6.92000054 1.32769295 10 5 C9.01 5.495 9.01 5.495 8 6 C6.0546875 5.0390625 6.0546875 5.0390625 3.875 3.625 C3.15054688 3.16351563 2.42609375 2.70203125 1.6796875 2.2265625 C1.12539063 1.82179688 0.57109375 1.41703125 0 1 C0 0.67 0 0.34 0 0 Z " fill="#2563DC" transform="translate(593,103)"/>
  <path d="M0 0 C0.33 0.66 0.66 1.32 1 2 C-0.07229283 5.13439441 -1.47657021 8.06195683 -3 11 C-3.66 11 -4.32 11 -5 11 C-3.77472971 6.94718288 -2.30119506 3.55639236 0 0 Z " fill="#5053D0" transform="translate(800,413)"/>
  <path d="M0 0 C0.33 0 0.66 0 1 0 C1.3125 2.25 1.3125 2.25 1 5 C-1.5 7.3125 -1.5 7.3125 -4 9 C-2.94124926 5.59687262 -1.99097846 2.98646769 0 0 Z " fill="#2B62DB" transform="translate(415,471)"/>
  <path d="M0 0 C2.97 1.65 5.94 3.3 9 5 C7.68 5.33 6.36 5.66 5 6 C4.01 5.34 3.02 4.68 2 4 C2 3.34 2 2.68 2 2 C1.34 2 0.68 2 0 2 C0 1.34 0 0.68 0 0 Z " fill="#4A5DD2" transform="translate(824,237)"/>
  <path d="M0 0 C1.98 0 3.96 0 6 0 C6.66 1.65 7.32 3.3 8 5 C4.62496331 3.8141763 2.35277269 2.72426311 0 0 Z " fill="#3851CD" transform="translate(794,221)"/>
  <path d="M0 0 C2.875 0.25 2.875 0.25 6 1 C7.375 3.0625 7.375 3.0625 8 5 C4.62496331 3.8141763 2.35277269 2.72426311 0 0 Z " fill="#5B56CC" transform="translate(391,897)"/>
  <path d="M0 0 C2.875 0.25 2.875 0.25 6 1 C7.375 3.0625 7.375 3.0625 8 5 C4.62496331 3.8141763 2.35277269 2.72426311 0 0 Z " fill="#5354CE" transform="translate(357,876)"/>
  <path d="M0 0 C3.37503669 1.1858237 5.64722731 2.27573689 8 5 C4.33776842 4.50510384 2.33006074 3.94323463 0 1 C0 0.67 0 0.34 0 0 Z " fill="#444EC9" transform="translate(313,848)"/>
  <path d="M0 0 C2.875 0.25 2.875 0.25 6 1 C7.375 3.0625 7.375 3.0625 8 5 C4.62496331 3.8141763 2.35277269 2.72426311 0 0 Z " fill="#4362D5" transform="translate(219,792)"/>
  <path d="M0 0 C2.9375 0.375 2.9375 0.375 6 1 C6.33 1.66 6.66 2.32 7 3 C5.1875 3.6875 5.1875 3.6875 3 4 C1.25 2.625 1.25 2.625 0 1 C0 0.67 0 0.34 0 0 Z " fill="#3162DA" transform="translate(668,147)"/>
  <path d="M0 0 C0.66 0.66 1.32 1.32 2 2 C1.01 1.67 0.02 1.34 -1 1 C-0.67 0.67 -0.34 0.34 0 0 Z " fill="#3E60C9" transform="translate(153,754)"/>
  <path d="" fill="#415DCA" transform="translate(0,0)"/>
  <path d="" fill="#3D61C6" transform="translate(0,0)"/>
  <path d="" fill="#3179DE" transform="translate(0,0)"/>
  <path d="" fill="#3178DD" transform="translate(0,0)"/>
  <path d="M0 0 C3 1 3 1 3 1 Z " fill="#3679DA" transform="translate(440,91)"/>
  <path d="M0 0 C2 1 2 1 2 1 Z " fill="#6655C2" transform="translate(490,957)"/>
  <path d="M0 0 C2 1 2 1 2 1 Z " fill="#5652C3" transform="translate(394,901)"/>
  <path d="M0 0 C2 1 2 1 2 1 Z " fill="#5754C3" transform="translate(377,891)"/>
  <path d="" fill="#5456C5" transform="translate(0,0)"/>
  <path d="M0 0 C2 1 2 1 2 1 Z " fill="#4258CA" transform="translate(250,813)"/>
  <path d="M0 0 C2 1 2 1 2 1 Z " fill="#3F61C8" transform="translate(155,756)"/>
  <path d="" fill="#3E62C6" transform="translate(0,0)"/>
  <path d="" fill="#317ADE" transform="translate(0,0)"/>
  <path d="" fill="#2F78DE" transform="translate(0,0)"/>
  <path d="" fill="#3076DD" transform="translate(0,0)"/>
  <path d="" fill="#3179DF" transform="translate(0,0)"/>
  <path d="" fill="#317AE0" transform="translate(0,0)"/>
  <path d="" fill="#307BDF" transform="translate(0,0)"/>
  <path d="" fill="#3279DD" transform="translate(0,0)"/>
  <path d="" fill="#3279DC" transform="translate(0,0)"/>
  <path d="" fill="#2F78D9" transform="translate(0,0)"/>
  <path d="" fill="#5355BF" transform="translate(0,0)"/>
  <path d="" fill="#2374D8" transform="translate(0,0)"/>
  <path d="M0 0 C2 1 2 1 2 1 Z " fill="#2373D9" transform="translate(229,216)"/>
  <path d="M0 0 C2 1 2 1 2 1 Z " fill="#2774D7" transform="translate(297,176)"/>
  <path d="M0 0 C2 1 2 1 2 1 Z " fill="#2776D8" transform="translate(310,168)"/>
  <path d="M0 0 C2 1 2 1 2 1 Z " fill="#2574D9" transform="translate(349,145)"/>
  <path d="M0 0 C2 1 2 1 2 1 Z " fill="#3363D0" transform="translate(658,138)"/>
  <path d="M0 0 C2 1 2 1 2 1 Z " fill="#2773D9" transform="translate(365,136)"/>
  <path d="" fill="#2D75D9" transform="translate(0,0)"/>
  <path d="M0 0 C2 1 2 1 2 1 Z " fill="#336CD3" transform="translate(587,96)"/>
  <path d="M0 0 C2 1 2 1 2 1 Z " fill="#3977D8" transform="translate(526,64)"/>
  <path d="" fill="#4F4B4F" transform="translate(0,0)"/>
  <path d="" fill="#715E8E" transform="translate(0,0)"/>
  <path d="" fill="#78659E" transform="translate(0,0)"/>
  <path d="" fill="#7966A0" transform="translate(0,0)"/>
  <path d="" fill="#7A68A4" transform="translate(0,0)"/>
  <path d="" fill="#6B5A95" transform="translate(0,0)"/>
  <path d="" fill="#797777" transform="translate(0,0)"/>
  <path d="" fill="#787773" transform="translate(0,0)"/>
  <path d="" fill="#6B6A6A" transform="translate(0,0)"/>
  <path d="" fill="#2C2A33" transform="translate(0,0)"/>
  <path d="" fill="#6958C3" transform="translate(0,0)"/>
  <path d="" fill="#6555C1" transform="translate(0,0)"/>
  <path d="" fill="#6857C5" transform="translate(0,0)"/>
  <path d="" fill="#646664" transform="translate(0,0)"/>
  <path d="" fill="#6252C2" transform="translate(0,0)"/>
  <path d="" fill="#694EBF" transform="translate(0,0)"/>
  <path d="" fill="#5D54C4" transform="translate(0,0)"/>
  <path d="" fill="#6950BB" transform="translate(0,0)"/>
  <path d="" fill="#5F53C2" transform="translate(0,0)"/>
  <path d="" fill="#6053C3" transform="translate(0,0)"/>
  <path d="" fill="#5D50C0" transform="translate(0,0)"/>
  <path d="" fill="#5B54C4" transform="translate(0,0)"/>
  <path d="" fill="#614CBD" transform="translate(0,0)"/>
  <path d="" fill="#674DC0" transform="translate(0,0)"/>
  <path d="" fill="#5953C2" transform="translate(0,0)"/>
  <path d="" fill="#5651C0" transform="translate(0,0)"/>
  <path d="" fill="#5A55C6" transform="translate(0,0)"/>
  <path d="" fill="#5357C5" transform="translate(0,0)"/>
  <path d="" fill="#5356C5" transform="translate(0,0)"/>
  <path d="" fill="#5253C8" transform="translate(0,0)"/>
  <path d="" fill="#5353C7" transform="translate(0,0)"/>
  <path d="" fill="#5255C4" transform="translate(0,0)"/>
  <path d="" fill="#4D53C2" transform="translate(0,0)"/>
  <path d="" fill="#664EBE" transform="translate(0,0)"/>
  <path d="" fill="#4F58C7" transform="translate(0,0)"/>
  <path d="" fill="#4F59C8" transform="translate(0,0)"/>
  <path d="" fill="#4D59C9" transform="translate(0,0)"/>
  <path d="" fill="#654EBD" transform="translate(0,0)"/>
  <path d="" fill="#4955C6" transform="translate(0,0)"/>
  <path d="" fill="#4C59C6" transform="translate(0,0)"/>
  <path d="" fill="#654EBA" transform="translate(0,0)"/>
  <path d="" fill="#455ACA" transform="translate(0,0)"/>
  <path d="" fill="#5D46B9" transform="translate(0,0)"/>
  <path d="" fill="#6148B9" transform="translate(0,0)"/>
  <path d="" fill="#425BC9" transform="translate(0,0)"/>
  <path d="" fill="#405BCA" transform="translate(0,0)"/>
  <path d="" fill="#634DBB" transform="translate(0,0)"/>
  <path d="" fill="#405ECB" transform="translate(0,0)"/>
  <path d="" fill="#3E5BCB" transform="translate(0,0)"/>
  <path d="" fill="#3D5BC7" transform="translate(0,0)"/>
  <path d="" fill="#3F5CC8" transform="translate(0,0)"/>
  <path d="" fill="#3F5CC6" transform="translate(0,0)"/>
  <path d="" fill="#664BB9" transform="translate(0,0)"/>
  <path d="" fill="#3F60CC" transform="translate(0,0)"/>
  <path d="" fill="#737376" transform="translate(0,0)"/>
  <path d="" fill="#3E60C8" transform="translate(0,0)"/>
  <path d="" fill="#3A5BC8" transform="translate(0,0)"/>
  <path d="" fill="#3D5ECB" transform="translate(0,0)"/>
  <path d="" fill="#3D5FC9" transform="translate(0,0)"/>
  <path d="" fill="#3F5DC8" transform="translate(0,0)"/>
  <path d="" fill="#614AB7" transform="translate(0,0)"/>
  <path d="" fill="#4063CC" transform="translate(0,0)"/>
  <path d="" fill="#3D5FCB" transform="translate(0,0)"/>
  <path d="" fill="#654DB7" transform="translate(0,0)"/>
  <path d="" fill="#3D60CA" transform="translate(0,0)"/>
  <path d="" fill="#3D61C7" transform="translate(0,0)"/>
  <path d="" fill="#3D63C7" transform="translate(0,0)"/>
  <path d="" fill="#3C62C7" transform="translate(0,0)"/>
  <path d="" fill="#3F65C7" transform="translate(0,0)"/>
  <path d="" fill="#3E65C4" transform="translate(0,0)"/>
  <path d="" fill="#3F68C7" transform="translate(0,0)"/>
  <path d="" fill="#3D68CD" transform="translate(0,0)"/>
  <path d="" fill="#3F66CA" transform="translate(0,0)"/>
  <path d="" fill="#4068CB" transform="translate(0,0)"/>
  <path d="" fill="#426ED2" transform="translate(0,0)"/>
  <path d="" fill="#8D93A4" transform="translate(0,0)"/>
  <path d="" fill="#2D76DE" transform="translate(0,0)"/>
  <path d="" fill="#3079DF" transform="translate(0,0)"/>
  <path d="" fill="#2F78DF" transform="translate(0,0)"/>
  <path d="" fill="#2F7ADE" transform="translate(0,0)"/>
  <path d="" fill="#2F78DE" transform="translate(0,0)"/>
  <path d="" fill="#3179DC" transform="translate(0,0)"/>
  <path d="" fill="#3178DE" transform="translate(0,0)"/>
  <path d="" fill="#317BDF" transform="translate(0,0)"/>
  <path d="" fill="#317BDE" transform="translate(0,0)"/>
  <path d="" fill="#337ADC" transform="translate(0,0)"/>
  <path d="" fill="#357ADB" transform="translate(0,0)"/>
  <path d="" fill="#848B98" transform="translate(0,0)"/>
  <path d="" fill="#5654C1" transform="translate(0,0)"/>
  <path d="" fill="#2F77DA" transform="translate(0,0)"/>
  <path d="" fill="#3276D7" transform="translate(0,0)"/>
  <path d="" fill="#818794" transform="translate(0,0)"/>
  <path d="" fill="#317AD5" transform="translate(0,0)"/>
  <path d="" fill="#3179D7" transform="translate(0,0)"/>
  <path d="" fill="#3074D3" transform="translate(0,0)"/>
  <path d="" fill="#2970D2" transform="translate(0,0)"/>
  <path d="" fill="#7B818A" transform="translate(0,0)"/>
  <path d="" fill="#2B73CF" transform="translate(0,0)"/>
  <path d="" fill="#4B51C0" transform="translate(0,0)"/>
  <path d="" fill="#2D71CE" transform="translate(0,0)"/>
  <path d="" fill="#4B54C3" transform="translate(0,0)"/>
  <path d="" fill="#4B54C0" transform="translate(0,0)"/>
  <path d="" fill="#2873D4" transform="translate(0,0)"/>
  <path d="" fill="#2372DA" transform="translate(0,0)"/>
  <path d="" fill="#2776D5" transform="translate(0,0)"/>
  <path d="" fill="#4754C4" transform="translate(0,0)"/>
  <path d="" fill="#2775D6" transform="translate(0,0)"/>
  <path d="" fill="#2472D6" transform="translate(0,0)"/>
  <path d="" fill="#4757C4" transform="translate(0,0)"/>
  <path d="" fill="#2571D3" transform="translate(0,0)"/>
  <path d="" fill="#2874D6" transform="translate(0,0)"/>
  <path d="" fill="#2573D7" transform="translate(0,0)"/>
  <path d="" fill="#2373D4" transform="translate(0,0)"/>
  <path d="" fill="#2973D5" transform="translate(0,0)"/>
  <path d="" fill="#2672D3" transform="translate(0,0)"/>
  <path d="" fill="#4254C8" transform="translate(0,0)"/>
  <path d="" fill="#2773D6" transform="translate(0,0)"/>
  <path d="" fill="#2675D7" transform="translate(0,0)"/>
  <path d="" fill="#4257C7" transform="translate(0,0)"/>
  <path d="" fill="#2B78DB" transform="translate(0,0)"/>
  <path d="" fill="#2573D9" transform="translate(0,0)"/>
  <path d="" fill="#3F58C7" transform="translate(0,0)"/>
  <path d="" fill="#2375D9" transform="translate(0,0)"/>
  <path d="" fill="#3D57C7" transform="translate(0,0)"/>
  <path d="" fill="#2577DA" transform="translate(0,0)"/>
  <path d="" fill="#3D5BC9" transform="translate(0,0)"/>
  <path d="" fill="#2677DC" transform="translate(0,0)"/>
  <path d="" fill="#2376DC" transform="translate(0,0)"/>
  <path d="" fill="#3859CC" transform="translate(0,0)"/>
  <path d="" fill="#385DCE" transform="translate(0,0)"/>
  <path d="" fill="#395ACC" transform="translate(0,0)"/>
  <path d="" fill="#2475D9" transform="translate(0,0)"/>
  <path d="" fill="#2676D9" transform="translate(0,0)"/>
  <path d="" fill="#385CCB" transform="translate(0,0)"/>
  <path d="" fill="#2775DB" transform="translate(0,0)"/>
  <path d="" fill="#2576D6" transform="translate(0,0)"/>
  <path d="" fill="#2578DA" transform="translate(0,0)"/>
  <path d="" fill="#385FCE" transform="translate(0,0)"/>
  <path d="" fill="#2577D7" transform="translate(0,0)"/>
  <path d="" fill="#2577D6" transform="translate(0,0)"/>
  <path d="" fill="#2875DB" transform="translate(0,0)"/>
  <path d="" fill="#3861CF" transform="translate(0,0)"/>
  <path d="" fill="#345FCC" transform="translate(0,0)"/>
  <path d="" fill="#2878DB" transform="translate(0,0)"/>
  <path d="" fill="#60615F" transform="translate(0,0)"/>
  <path d="" fill="#2876DA" transform="translate(0,0)"/>
  <path d="" fill="#2975D9" transform="translate(0,0)"/>
  <path d="" fill="#2C7ADF" transform="translate(0,0)"/>
  <path d="" fill="#2674D8" transform="translate(0,0)"/>
  <path d="" fill="#5F5F5E" transform="translate(0,0)"/>
  <path d="" fill="#2A74DA" transform="translate(0,0)"/>
  <path d="" fill="#3468D1" transform="translate(0,0)"/>
  <path d="" fill="#3269D4" transform="translate(0,0)"/>
  <path d="" fill="#2D75DB" transform="translate(0,0)"/>
  <path d="" fill="#366AD4" transform="translate(0,0)"/>
  <path d="" fill="#3468D3" transform="translate(0,0)"/>
  <path d="" fill="#2B74D8" transform="translate(0,0)"/>
  <path d="" fill="#2D75D9" transform="translate(0,0)"/>
  <path d="" fill="#2C75D9" transform="translate(0,0)"/>
  <path d="" fill="#3378DA" transform="translate(0,0)"/>
  <path d="" fill="#367AD9" transform="translate(0,0)"/>
  <path d="" fill="#376ED3" transform="translate(0,0)"/>
  <path d="" fill="#3579D8" transform="translate(0,0)"/>
  <path d="" fill="#3476D9" transform="translate(0,0)"/>
  <path d="" fill="#3475D9" transform="translate(0,0)"/>
  <path d="" fill="#3876D9" transform="translate(0,0)"/>
  <path d="" fill="#3A78D9" transform="translate(0,0)"/>
  <path d="" fill="#3671D5" transform="translate(0,0)"/>
  <path d="" fill="#3A7CD8" transform="translate(0,0)"/>
  <path d="" fill="#3B76D8" transform="translate(0,0)"/>
  <path d="" fill="#3979D7" transform="translate(0,0)"/>
  <path d="" fill="#3B7BD8" transform="translate(0,0)"/>
  <path d="" fill="#6D6D6B" transform="translate(0,0)"/>
  <path d="" fill="#727270" transform="translate(0,0)"/>
  <path d="" fill="#696967" transform="translate(0,0)"/>
  <path d="" fill="#767577" transform="translate(0,0)"/>
  <path d="" fill="#858993" transform="translate(0,0)"/>
  <path d="" fill="#8D97A8" transform="translate(0,0)"/>
  <path d="" fill="#92A0BA" transform="translate(0,0)"/>
  <path d="" fill="#807F80" transform="translate(0,0)"/>
  <path d="" fill="#787471" transform="translate(0,0)"/>
</svg>